<svg width="310" height="49" viewBox="0 0 310 49" fill="none" xmlns="http://www.w3.org/2000/svg">
<path d="M0 37.8564V0H7.59195V30.4984H23.5089V37.8564H0Z" fill="black"/>
<path d="M0 37.8564V0H7.59195V30.4984H23.5089V37.8564H0Z" fill="black" fill-opacity="0.2"/>
<path d="M39.6373 38.4429C35.6231 38.4429 32.3246 37.1277 29.7416 34.4973C27.1935 31.8669 25.9194 28.5256 25.9194 24.4733C25.9194 20.4922 27.2109 17.1864 29.7939 14.556C32.4118 11.9256 35.7104 10.6104 39.6896 10.6104C43.7038 10.6104 47.0373 12.0145 49.6901 14.8226C52.3429 17.5952 53.5646 21.3986 53.3552 26.2329H32.9354C33.075 27.9035 33.7557 29.3076 34.9774 30.445C36.1991 31.547 37.8745 32.0979 40.0038 32.0979C41.2953 32.0979 42.4297 31.8491 43.4071 31.3515C44.4193 30.8183 45.1349 30.0896 45.5538 29.1654H53.041C52.2731 31.9024 50.6674 34.1418 48.224 35.8836C45.7807 37.5898 42.9184 38.4429 39.6373 38.4429ZM39.4802 16.5288C37.8396 16.5288 36.4609 16.9732 35.3439 17.8618C34.2618 18.7149 33.5463 19.9057 33.1972 21.4342H45.5014C45.1174 19.7635 44.3495 18.5372 43.1976 17.7552C42.0807 16.9376 40.8415 16.5288 39.4802 16.5288Z" fill="black"/>
<path d="M39.6373 38.4429C35.6231 38.4429 32.3246 37.1277 29.7416 34.4973C27.1935 31.8669 25.9194 28.5256 25.9194 24.4733C25.9194 20.4922 27.2109 17.1864 29.7939 14.556C32.4118 11.9256 35.7104 10.6104 39.6896 10.6104C43.7038 10.6104 47.0373 12.0145 49.6901 14.8226C52.3429 17.5952 53.5646 21.3986 53.3552 26.2329H32.9354C33.075 27.9035 33.7557 29.3076 34.9774 30.445C36.1991 31.547 37.8745 32.0979 40.0038 32.0979C41.2953 32.0979 42.4297 31.8491 43.4071 31.3515C44.4193 30.8183 45.1349 30.0896 45.5538 29.1654H53.041C52.2731 31.9024 50.6674 34.1418 48.224 35.8836C45.7807 37.5898 42.9184 38.4429 39.6373 38.4429ZM39.4802 16.5288C37.8396 16.5288 36.4609 16.9732 35.3439 17.8618C34.2618 18.7149 33.5463 19.9057 33.1972 21.4342H45.5014C45.1174 19.7635 44.3495 18.5372 43.1976 17.7552C42.0807 16.9376 40.8415 16.5288 39.4802 16.5288Z" fill="black" fill-opacity="0.2"/>
<path d="M69.2091 38.4429C65.7534 38.4429 62.8388 37.0744 60.4652 34.3373C58.0917 31.6003 56.9049 28.3301 56.9049 24.5267C56.9049 20.7232 58.0917 17.453 60.4652 14.716C62.8388 11.979 65.7534 10.6104 69.2091 10.6104C70.8845 10.6104 72.3855 10.9659 73.7119 11.6768C75.0383 12.3877 76.0506 13.2231 76.7487 14.1828V11.197H83.9218V37.8564H76.7487V34.8705C76.0506 35.8302 75.0383 36.6656 73.7119 37.3765C72.3855 38.0874 70.8845 38.4429 69.2091 38.4429ZM65.9105 29.7519C67.1322 31.1026 68.7379 31.778 70.7275 31.778C72.7171 31.778 74.3053 31.1026 75.4921 29.7519C76.7138 28.4012 77.3246 26.6594 77.3246 24.5267C77.3246 22.3939 76.7138 20.6522 75.4921 19.3014C74.3053 17.9507 72.7171 17.2753 70.7275 17.2753C68.7379 17.2753 67.1322 17.9507 65.9105 19.3014C64.7237 20.6522 64.1303 22.3939 64.1303 24.5267C64.1303 26.6594 64.7237 28.4012 65.9105 29.7519Z" fill="black"/>
<path d="M69.2091 38.4429C65.7534 38.4429 62.8388 37.0744 60.4652 34.3373C58.0917 31.6003 56.9049 28.3301 56.9049 24.5267C56.9049 20.7232 58.0917 17.453 60.4652 14.716C62.8388 11.979 65.7534 10.6104 69.2091 10.6104C70.8845 10.6104 72.3855 10.9659 73.7119 11.6768C75.0383 12.3877 76.0506 13.2231 76.7487 14.1828V11.197H83.9218V37.8564H76.7487V34.8705C76.0506 35.8302 75.0383 36.6656 73.7119 37.3765C72.3855 38.0874 70.8845 38.4429 69.2091 38.4429ZM65.9105 29.7519C67.1322 31.1026 68.7379 31.778 70.7275 31.778C72.7171 31.778 74.3053 31.1026 75.4921 29.7519C76.7138 28.4012 77.3246 26.6594 77.3246 24.5267C77.3246 22.3939 76.7138 20.6522 75.4921 19.3014C74.3053 17.9507 72.7171 17.2753 70.7275 17.2753C68.7379 17.2753 67.1322 17.9507 65.9105 19.3014C64.7237 20.6522 64.1303 22.3939 64.1303 24.5267C64.1303 26.6594 64.7237 28.4012 65.9105 29.7519Z" fill="black" fill-opacity="0.2"/>
<path d="M99.0631 37.8564L87.4919 11.197H95.398L102.309 28.259L109.221 11.197H117.231L105.608 37.8564H99.0631Z" fill="black"/>
<path d="M99.0631 37.8564L87.4919 11.197H95.398L102.309 28.259L109.221 11.197H117.231L105.608 37.8564H99.0631Z" fill="black" fill-opacity="0.2"/>
<path d="M131.98 38.4429C127.966 38.4429 124.667 37.1277 122.084 34.4973C119.536 31.8669 118.262 28.5256 118.262 24.4733C118.262 20.4922 119.554 17.1864 122.137 14.556C124.755 11.9256 128.053 10.6104 132.033 10.6104C136.047 10.6104 139.38 12.0145 142.033 14.8226C144.686 17.5952 145.907 21.3986 145.698 26.2329H125.278C125.418 27.9035 126.099 29.3076 127.32 30.445C128.542 31.547 130.217 32.0979 132.347 32.0979C133.638 32.0979 134.773 31.8491 135.75 31.3515C136.762 30.8183 137.478 30.0896 137.897 29.1654H145.384C144.616 31.9024 143.01 34.1418 140.567 35.8836C138.124 37.5898 135.261 38.4429 131.98 38.4429ZM131.823 16.5288C130.183 16.5288 128.804 16.9732 127.687 17.8618C126.605 18.7149 125.889 19.9057 125.54 21.4342H137.844C137.46 19.7635 136.692 18.5372 135.541 17.7552C134.424 16.9376 133.184 16.5288 131.823 16.5288Z" fill="black"/>
<path d="M131.98 38.4429C127.966 38.4429 124.667 37.1277 122.084 34.4973C119.536 31.8669 118.262 28.5256 118.262 24.4733C118.262 20.4922 119.554 17.1864 122.137 14.556C124.755 11.9256 128.053 10.6104 132.033 10.6104C136.047 10.6104 139.38 12.0145 142.033 14.8226C144.686 17.5952 145.907 21.3986 145.698 26.2329H125.278C125.418 27.9035 126.099 29.3076 127.32 30.445C128.542 31.547 130.217 32.0979 132.347 32.0979C133.638 32.0979 134.773 31.8491 135.75 31.3515C136.762 30.8183 137.478 30.0896 137.897 29.1654H145.384C144.616 31.9024 143.01 34.1418 140.567 35.8836C138.124 37.5898 135.261 38.4429 131.98 38.4429ZM131.823 16.5288C130.183 16.5288 128.804 16.9732 127.687 17.8618C126.605 18.7149 125.889 19.9057 125.54 21.4342H137.844C137.46 19.7635 136.692 18.5372 135.541 17.7552C134.424 16.9376 133.184 16.5288 131.823 16.5288Z" fill="black" fill-opacity="0.2"/>
<path d="M183.909 37.8564V23.6202C183.909 19.3903 182.548 17.2753 179.825 17.2753C178.254 17.2753 176.998 17.8796 176.055 19.0881C175.148 20.2967 174.659 22.0918 174.589 24.4733V37.8564H167.416V23.6202C167.416 19.3903 166.055 17.2753 163.332 17.2753C161.726 17.2753 160.452 17.9151 159.51 19.1948C158.568 20.4744 158.096 22.3584 158.096 24.8466V37.8564H150.923V11.197H158.096V14.2361C159.737 11.819 162.058 10.6104 165.06 10.6104C168.725 10.6104 171.43 12.2456 173.175 15.5158C173.943 13.9873 175.095 12.7965 176.631 11.9434C178.167 11.0548 179.72 10.6104 181.291 10.6104C184.398 10.6104 186.806 11.659 188.516 13.7563C190.227 15.8535 191.082 18.7327 191.082 22.3939V37.8564H183.909Z" fill="black"/>
<path d="M183.909 37.8564V23.6202C183.909 19.3903 182.548 17.2753 179.825 17.2753C178.254 17.2753 176.998 17.8796 176.055 19.0881C175.148 20.2967 174.659 22.0918 174.589 24.4733V37.8564H167.416V23.6202C167.416 19.3903 166.055 17.2753 163.332 17.2753C161.726 17.2753 160.452 17.9151 159.51 19.1948C158.568 20.4744 158.096 22.3584 158.096 24.8466V37.8564H150.923V11.197H158.096V14.2361C159.737 11.819 162.058 10.6104 165.06 10.6104C168.725 10.6104 171.43 12.2456 173.175 15.5158C173.943 13.9873 175.095 12.7965 176.631 11.9434C178.167 11.0548 179.72 10.6104 181.291 10.6104C184.398 10.6104 186.806 11.659 188.516 13.7563C190.227 15.8535 191.082 18.7327 191.082 22.3939V37.8564H183.909Z" fill="black" fill-opacity="0.2"/>
<path d="M209.7 38.4429C205.685 38.4429 202.387 37.1277 199.804 34.4973C197.256 31.8669 195.982 28.5256 195.982 24.4733C195.982 20.4922 197.273 17.1864 199.856 14.556C202.474 11.9256 205.773 10.6104 209.752 10.6104C213.766 10.6104 217.099 12.0145 219.752 14.8226C222.405 17.5952 223.627 21.3986 223.417 26.2329H202.998C203.137 27.9035 203.818 29.3076 205.04 30.445C206.261 31.547 207.937 32.0979 210.066 32.0979C211.358 32.0979 212.492 31.8491 213.469 31.3515C214.482 30.8183 215.197 30.0896 215.616 29.1654H223.103C222.335 31.9024 220.73 34.1418 218.286 35.8836C215.843 37.5898 212.981 38.4429 209.7 38.4429ZM209.542 16.5288C207.902 16.5288 206.523 16.9732 205.406 17.8618C204.324 18.7149 203.608 19.9057 203.259 21.4342H215.564C215.18 19.7635 214.412 18.5372 213.26 17.7552C212.143 16.9376 210.904 16.5288 209.542 16.5288Z" fill="black"/>
<path d="M209.7 38.4429C205.685 38.4429 202.387 37.1277 199.804 34.4973C197.256 31.8669 195.982 28.5256 195.982 24.4733C195.982 20.4922 197.273 17.1864 199.856 14.556C202.474 11.9256 205.773 10.6104 209.752 10.6104C213.766 10.6104 217.099 12.0145 219.752 14.8226C222.405 17.5952 223.627 21.3986 223.417 26.2329H202.998C203.137 27.9035 203.818 29.3076 205.04 30.445C206.261 31.547 207.937 32.0979 210.066 32.0979C211.358 32.0979 212.492 31.8491 213.469 31.3515C214.482 30.8183 215.197 30.0896 215.616 29.1654H223.103C222.335 31.9024 220.73 34.1418 218.286 35.8836C215.843 37.5898 212.981 38.4429 209.7 38.4429ZM209.542 16.5288C207.902 16.5288 206.523 16.9732 205.406 17.8618C204.324 18.7149 203.608 19.9057 203.259 21.4342H215.564C215.18 19.7635 214.412 18.5372 213.26 17.7552C212.143 16.9376 210.904 16.5288 209.542 16.5288Z" fill="black" fill-opacity="0.2"/>
<path d="M240.751 38.1763C237.819 38.1763 235.41 37.3587 233.525 35.7236C231.675 34.053 230.75 31.6536 230.75 28.5256V17.5952H225.462V11.197H230.75V3.78564H237.923V11.197H245.306V17.5952H237.923V27.086C237.923 28.7211 238.273 29.8941 238.971 30.605C239.669 31.2804 240.803 31.6181 242.374 31.6181C243.491 31.6181 244.468 31.4581 245.306 31.1382V37.5898C244.049 37.9808 242.531 38.1763 240.751 38.1763Z" fill="black"/>
<path d="M240.751 38.1763C237.819 38.1763 235.41 37.3587 233.525 35.7236C231.675 34.053 230.75 31.6536 230.75 28.5256V17.5952H225.462V11.197H230.75V3.78564H237.923V11.197H245.306V17.5952H237.923V27.086C237.923 28.7211 238.273 29.8941 238.971 30.605C239.669 31.2804 240.803 31.6181 242.374 31.6181C243.491 31.6181 244.468 31.4581 245.306 31.1382V37.5898C244.049 37.9808 242.531 38.1763 240.751 38.1763Z" fill="black" fill-opacity="0.2"/>
<path d="M250.424 37.8564V11.197H257.598V15.4625C258.051 14.1473 258.872 13.0631 260.058 12.21C261.28 11.3214 262.624 10.877 264.09 10.877C264.997 10.877 265.8 10.9837 266.498 11.197V18.6083C265.347 18.2173 264.264 18.0218 263.252 18.0218C261.542 18.0218 260.163 18.6616 259.116 19.9412C258.104 21.1853 257.598 22.9093 257.598 25.1132V37.8564H250.424Z" fill="black"/>
<path d="M250.424 37.8564V11.197H257.598V15.4625C258.051 14.1473 258.872 13.0631 260.058 12.21C261.28 11.3214 262.624 10.877 264.09 10.877C264.997 10.877 265.8 10.9837 266.498 11.197V18.6083C265.347 18.2173 264.264 18.0218 263.252 18.0218C261.542 18.0218 260.163 18.6616 259.116 19.9412C258.104 21.1853 257.598 22.9093 257.598 25.1132V37.8564H250.424Z" fill="black" fill-opacity="0.2"/>
<path d="M281.03 49H273.228L278.726 36.3634L267.73 11.197H275.584L282.6 28.4722L289.564 11.197H297.47L281.03 49Z" fill="black"/>
<path d="M281.03 49H273.228L278.726 36.3634L267.73 11.197H275.584L282.6 28.4722L289.564 11.197H297.47L281.03 49Z" fill="black" fill-opacity="0.2"/>
<path d="M304.764 38.2829C303.298 38.2829 302.059 37.7675 301.047 36.7367C300.034 35.7058 299.528 34.444 299.528 32.951C299.528 31.4581 300.034 30.1962 301.047 29.1654C302.059 28.1346 303.298 27.6191 304.764 27.6191C306.195 27.6191 307.417 28.1523 308.429 29.2187C309.476 30.2495 310 31.4937 310 32.951C310 34.4084 309.476 35.6703 308.429 36.7367C307.417 37.7675 306.195 38.2829 304.764 38.2829Z" fill="black"/>
<path d="M304.764 38.2829C303.298 38.2829 302.059 37.7675 301.047 36.7367C300.034 35.7058 299.528 34.444 299.528 32.951C299.528 31.4581 300.034 30.1962 301.047 29.1654C302.059 28.1346 303.298 27.6191 304.764 27.6191C306.195 27.6191 307.417 28.1523 308.429 29.2187C309.476 30.2495 310 31.4937 310 32.951C310 34.4084 309.476 35.6703 308.429 36.7367C307.417 37.7675 306.195 38.2829 304.764 38.2829Z" fill="black" fill-opacity="0.2"/>
<path fill-rule="evenodd" clip-rule="evenodd" d="M18 36.1509C17.9995 36.1502 17.9989 36.1496 19.6493 34.5761C21.2997 33.0025 21.2993 33.002 21.2989 33.0015L21.2983 33.0008L21.299 33.0017L21.3122 33.0173C21.3255 33.0331 21.348 33.0595 21.3794 33.0957C21.4422 33.1682 21.5405 33.2802 21.6727 33.4257C21.9372 33.7169 22.3364 34.1415 22.8567 34.6533C23.8996 35.6792 25.4164 37.0428 27.2996 38.3828C31.1002 41.087 36.1931 43.5548 41.8018 43.2338C47.2779 42.9204 51.9889 40.4065 55.3916 37.8807C57.0826 36.6255 58.4191 35.3905 59.3278 34.4747C59.7813 34.0177 60.1259 33.6425 60.3525 33.3874C60.4657 33.2599 60.5492 33.1625 60.6019 33.1002C60.6283 33.0691 60.6469 33.0467 60.6577 33.0337L60.667 33.0223C60.6666 33.0228 60.6662 33.0234 62.3336 34.5761C64.001 36.1288 64.0005 36.1294 64 36.1301L63.9987 36.1316L63.9956 36.1354L63.9871 36.1458L63.9609 36.1778C63.9393 36.2039 63.9095 36.2396 63.8717 36.2843C63.7961 36.3737 63.6883 36.4991 63.5494 36.6555C63.2718 36.9681 62.8693 37.4056 62.3508 37.9281C61.3157 38.9714 59.8091 40.3628 57.9037 41.7771C54.1134 44.5905 48.6172 47.5883 42.037 47.9649C35.0992 48.362 29.0571 45.3182 24.8593 42.3313C22.7432 40.8257 21.0451 39.2988 19.8727 38.1456C19.2854 37.5679 18.8269 37.0808 18.5106 36.7327C18.3525 36.5585 18.2296 36.4189 18.1438 36.3198C18.1009 36.2702 18.0673 36.2308 18.0431 36.2021L18.0138 36.1674L18.0046 36.1564L18.0013 36.1524L18 36.1509ZM21.2976 33C21.2977 33.0001 21.2979 33.0004 21.2983 33.0008L21.2983 33.0008L21.2976 33ZM21.2976 33C21.2976 33 21.2976 33 21.2976 33L21.2976 33Z" fill="#0560FC"/>
</svg>
