<svg width="30" height="30" viewBox="0 0 30 30" fill="none" xmlns="http://www.w3.org/2000/svg">
<path fill-rule="evenodd" clip-rule="evenodd" d="M8.75111 4.0625C9.26888 4.0625 9.68861 4.48223 9.68861 5V7.08454C13.2233 6.76975 16.7789 6.76975 20.3136 7.08454V5C20.3136 4.48223 20.7333 4.0625 21.2511 4.0625C21.7689 4.0625 22.1886 4.48223 22.1886 5V7.27054C24.0549 7.53443 25.5293 9.01059 25.7789 10.8935L25.8871 11.7097C26.3422 15.1426 26.3029 18.6231 25.7704 22.0448C25.5066 23.7399 24.1296 25.0418 22.4224 25.2102L20.9311 25.3572C16.9873 25.7462 13.0148 25.7462 9.07102 25.3572L7.57977 25.2102C5.87259 25.0418 4.49552 23.7399 4.23175 22.0448C3.69931 18.6231 3.66 15.1426 4.11505 11.7097L4.22324 10.8935C4.47283 9.01056 5.94727 7.53439 7.81361 7.27053V5C7.81361 4.48223 8.23335 4.0625 8.75111 4.0625ZM9.30757 9.00351C13.0941 8.6301 16.9081 8.6301 20.6946 9.00351L21.8264 9.11512C22.9098 9.22196 23.7771 10.0607 23.9202 11.1399L24.0284 11.9561C24.0662 12.2413 24.1004 12.5267 24.131 12.8125H5.87119C5.9018 12.5267 5.936 12.2413 5.97379 11.9561L6.08198 11.1399C6.22504 10.0607 7.09232 9.22196 8.17575 9.11512L9.30757 9.00351ZM5.72215 14.6875C5.59943 17.0476 5.72034 19.4165 6.08446 21.7565C6.21676 22.6067 6.90748 23.2598 7.76378 23.3442L9.25503 23.4913C13.0765 23.8681 16.9257 23.8681 20.7471 23.4913L22.2384 23.3442C23.0947 23.2598 23.7854 22.6067 23.9177 21.7565C24.2818 19.4165 24.4027 17.0476 24.28 14.6875H5.72215Z" fill="#A7A9AF"/>
</svg>
