<svg width="19" height="22" viewBox="0 0 19 22" fill="none" xmlns="http://www.w3.org/2000/svg">
<path fill-rule="evenodd" clip-rule="evenodd" d="M11.2525 3.22632C10.2731 2.28654 8.72679 2.28654 7.7474 3.22632L2.54265 8.22057C2.41513 8.34293 2.32935 8.50233 2.29748 8.67616C1.67408 12.0758 1.62806 15.5561 2.16136 18.971L2.28795 19.7815H5.63646V12.7938C5.63646 12.3278 6.01422 11.95 6.48021 11.95H12.5197C12.9857 11.95 13.3634 12.3278 13.3634 12.7938V19.7815H16.712L16.8385 18.971C17.3718 15.5561 17.3258 12.0758 16.7024 8.67616C16.6705 8.50233 16.5848 8.34293 16.4572 8.22057L11.2525 3.22632ZM6.57903 2.00871C8.21134 0.44241 10.7886 0.44241 12.4209 2.00871L17.6256 7.00296C18.0088 7.3706 18.2665 7.8495 18.3622 8.37179C19.0198 11.9579 19.0684 15.6291 18.5058 19.2313L18.3025 20.5335C18.2184 21.072 17.7545 21.469 17.2095 21.469H12.5197C12.0537 21.469 11.6759 21.0913 11.6759 20.6253V13.6375H7.32396V20.6253C7.32396 21.0913 6.9462 21.469 6.48021 21.469H1.79039C1.24535 21.469 0.781527 21.072 0.697428 20.5335L0.49407 19.2313C-0.0684845 15.6291 -0.0199438 11.9579 0.637652 8.37179C0.733427 7.8495 0.991147 7.3706 1.37429 7.00296L6.57903 2.00871Z" fill="#555555"/>
</svg>
