<svg width="19" height="20" viewBox="0 0 19 20" fill="none" xmlns="http://www.w3.org/2000/svg">
<path fill-rule="evenodd" clip-rule="evenodd" d="M4.71875 5.4375C4.71875 2.79689 6.85939 0.65625 9.5 0.65625C12.1406 0.65625 14.2812 2.79689 14.2812 5.4375C14.2812 8.07811 12.1406 10.2188 9.5 10.2188C6.85939 10.2188 4.71875 8.07811 4.71875 5.4375ZM9.5 2.34375C7.79137 2.34375 6.40625 3.72887 6.40625 5.4375C6.40625 7.14613 7.79137 8.53125 9.5 8.53125C11.2086 8.53125 12.5938 7.14613 12.5938 5.4375C12.5938 3.72887 11.2086 2.34375 9.5 2.34375Z" fill="#555555"/>
<path fill-rule="evenodd" clip-rule="evenodd" d="M5 13.5938C3.60203 13.5938 2.46875 14.727 2.46875 16.125V17.4618C2.46875 17.4822 2.4835 17.4995 2.50359 17.5028C7.13719 18.2593 11.8628 18.2593 16.4964 17.5028C16.5165 17.4995 16.5312 17.4822 16.5312 17.4618V16.125C16.5312 14.727 15.398 13.5938 14 13.5938H13.6165C13.5869 13.5938 13.5574 13.5984 13.5292 13.6076L12.5555 13.9256C10.5701 14.5739 8.42991 14.5739 6.44448 13.9256L5.47078 13.6076C5.44259 13.5984 5.41313 13.5938 5.38348 13.5938H5ZM0.78125 16.125C0.78125 13.7951 2.67005 11.9063 5 11.9063H5.38348C5.59103 11.9063 5.79728 11.9391 5.99458 12.0035L6.96829 12.3214C8.61336 12.8586 10.3866 12.8586 12.0317 12.3214L13.0054 12.0035C13.2027 11.9391 13.409 11.9063 13.6165 11.9063H14C16.33 11.9063 18.2188 13.7951 18.2188 16.125V17.4618C18.2188 18.3092 17.6046 19.0317 16.7683 19.1683C11.9546 19.9542 7.04536 19.9542 2.23168 19.1683C1.39537 19.0317 0.78125 18.3092 0.78125 17.4618V16.125Z" fill="#555555"/>
</svg>
