<svg width="29" height="29" viewBox="0 0 29 29" fill="none" xmlns="http://www.w3.org/2000/svg">
<path fill-rule="evenodd" clip-rule="evenodd" d="M11.7559 4.82484C13.0754 2.89432 15.9231 2.89433 17.2426 4.82484L17.7645 5.58844C21.0343 10.3725 23.8436 15.4555 26.1549 20.7693L26.2639 21.02C27.0783 22.8926 25.8478 25.0189 23.8184 25.2458C17.6249 25.938 11.3736 25.938 5.18011 25.2458C3.15067 25.0189 1.92014 22.8926 2.73463 21.02L2.84363 20.7693C5.15485 15.4555 7.96418 10.3725 11.234 5.58844L11.7559 4.82484ZM15.7076 10.8754C15.7076 11.5428 15.1666 12.0837 14.4993 12.0837C13.8319 12.0837 13.2909 11.5428 13.2909 10.8754C13.2909 10.2081 13.8319 9.66707 14.4993 9.66707C15.1666 9.66707 15.7076 10.2081 15.7076 10.8754ZM14.4993 14.1983C14.9998 14.1983 15.4055 14.6041 15.4055 15.1046V21.1462C15.4055 21.6467 14.9998 22.0525 14.4993 22.0525C13.9988 22.0525 13.593 21.6467 13.593 21.1462V15.1046C13.593 14.6041 13.9988 14.1983 14.4993 14.1983Z" fill="#784DF5"/>
</svg>
