<svg width="18" height="18" viewBox="0 0 18 18" fill="none" xmlns="http://www.w3.org/2000/svg">
<path fill-rule="evenodd" clip-rule="evenodd" d="M17.0853 14.9326C17.5303 10.6559 17.5303 6.34456 17.0853 2.06786C16.9266 0.542816 15.1682 -0.229699 13.9377 0.685021L9.83405 3.73543C8.5836 4.66494 7.06697 5.16689 5.50889 5.16689H1.67969C0.989332 5.16689 0.429688 5.72653 0.429688 6.41689V10.5836C0.429688 11.2739 0.98933 11.8336 1.67969 11.8336H2.30397L1.45861 14.9885C1.36441 15.34 1.53622 15.7085 1.86608 15.8623L5.54723 17.5789C5.74815 17.6726 5.98023 17.6726 6.18116 17.5789C6.38208 17.4852 6.53126 17.3074 6.58864 17.0933L7.85134 12.3809C7.86475 12.3308 7.87276 12.2806 7.87574 12.2308C8.57322 12.4717 9.23426 12.8192 9.83405 13.265L13.9377 16.3154C15.1682 17.2302 16.9266 16.4576 17.0853 14.9326ZM15.5933 2.2231C16.0276 6.39658 16.0276 10.6039 15.5933 14.7774C15.555 15.146 15.13 15.3327 14.8326 15.1116L10.7289 12.0612C9.21975 10.9394 7.38933 10.3336 5.50888 10.3336L1.92969 10.3336L1.92969 6.66689H5.50888C7.38933 6.66689 9.21975 6.06109 10.7289 4.93927L14.8326 1.88886C15.13 1.66777 15.555 1.85448 15.5933 2.2231ZM6.43664 11.8932C6.13024 11.8536 5.82039 11.8336 5.50888 11.8336H3.85688L3.07038 14.7688L5.37109 15.8417L6.40245 11.9926C6.41166 11.9582 6.42313 11.925 6.43664 11.8932Z" fill="#A7A9AF"/>
</svg>
