<svg width="17" height="24" viewBox="0 0 17 24" fill="none" xmlns="http://www.w3.org/2000/svg">
<path fill-rule="evenodd" clip-rule="evenodd" d="M6.82 0.69654C7.02443 0.461313 7.34189 0.357933 7.64564 0.427668C11.7056 1.35975 13.7577 5.80869 13.2751 9.78909C13.0875 11.3364 12.6241 12.5494 11.9416 13.5145C11.9374 13.5204 11.9332 13.5263 11.929 13.5322C12.084 13.456 12.2271 13.3738 12.3609 13.2869C13.0268 12.8547 13.5156 12.2843 14.1519 11.5416C14.2288 11.4519 14.3079 11.3596 14.3897 11.2647C14.5736 11.0515 14.8516 10.9441 15.131 10.9782C15.4104 11.0123 15.6544 11.1836 15.7815 11.4348C16.3413 12.5409 16.6562 13.7914 16.6562 15.113C16.6562 19.6175 13.0046 23.2692 8.5 23.2692C3.99543 23.2692 0.34375 19.6175 0.34375 15.113C0.34375 12.2588 1.81042 9.74769 4.02735 8.29144L4.10335 8.21485C4.1424 8.17551 4.18523 8.14011 4.23121 8.10916C5.20531 7.45369 5.90476 6.91759 6.37567 6.28711C6.82052 5.69152 7.09375 4.96497 7.09375 3.86297C7.09375 3.04703 6.94309 2.26826 6.66882 1.5516C6.55743 1.26053 6.61556 0.931767 6.82 0.69654ZM8.69262 2.65716C8.75102 3.05089 8.78125 3.45356 8.78125 3.86297C8.78125 5.28994 8.41258 6.37994 7.72767 7.29693C7.08445 8.15811 6.19406 8.81953 5.24274 9.46238L5.1614 9.54434C5.11782 9.58826 5.06955 9.62725 5.01744 9.66061C3.21978 10.8115 2.03125 12.8237 2.03125 15.113C2.03125 18.6856 4.92741 21.5817 8.5 21.5817C12.0726 21.5817 14.9688 18.6856 14.9688 15.113C14.9688 14.5282 14.8913 13.9622 14.7464 13.4244C14.3186 13.8875 13.8465 14.3345 13.2796 14.7024C12.2409 15.3765 10.9412 15.7614 9.0625 15.7614C8.67747 15.7614 8.34127 15.5007 8.24535 15.1278C8.14943 14.7549 8.31812 14.3644 8.65537 14.1786C9.41903 13.7579 10.0664 13.2436 10.5638 12.5402C11.0601 11.8383 11.4404 10.9011 11.5999 9.58596C11.9451 6.73888 10.7668 3.9287 8.69262 2.65716Z" fill="#555555"/>
</svg>
