<svg width="32" height="33" viewBox="0 0 32 33" fill="none" xmlns="http://www.w3.org/2000/svg">
<path fill-rule="evenodd" clip-rule="evenodd" d="M10.0064 10.9752L10.4518 14.9842L9.5504 15.0562C8.29337 15.1565 7.26694 16.1015 7.06317 17.3459C6.59353 20.2141 6.59353 23.1395 7.06317 26.0077C7.26694 27.2522 8.29337 28.1971 9.5504 28.2974L11.4931 28.4525C14.5602 28.6974 17.642 28.6974 20.7091 28.4525L22.6518 28.2974C23.9088 28.1971 24.9352 27.2522 25.139 26.0077C25.6087 23.1395 25.6087 20.2141 25.139 17.3459C24.9352 16.1015 23.9088 15.1565 22.6518 15.0562L21.7502 14.9842L22.1957 10.9752C22.2482 10.5025 22.2482 10.0256 22.1957 9.55297L22.1661 9.28692C21.8526 6.46486 19.634 4.23196 16.814 3.9002C16.3403 3.84447 15.8617 3.84447 15.388 3.9002C12.568 4.23196 10.3495 6.46486 10.0359 9.28692L10.0064 9.55297C9.95386 10.0256 9.95386 10.5025 10.0064 10.9752ZM16.5865 5.83454C16.264 5.7966 15.9381 5.7966 15.6156 5.83454C13.6957 6.06042 12.1852 7.58065 11.9717 9.502L11.9421 9.76805C11.9055 10.0977 11.9055 10.4304 11.9421 10.7601L12.395 14.8362C14.8632 14.6779 17.3389 14.6779 19.807 14.8362L20.2599 10.7601C20.2965 10.4304 20.2965 10.0977 20.2599 9.76805L20.2303 9.502C20.0169 7.58065 18.5064 6.06042 16.5865 5.83454ZM16.1011 19.7291C15.0254 19.7291 14.1534 20.6011 14.1534 21.6768C14.1534 22.7525 15.0254 23.6245 16.1011 23.6245C17.1767 23.6245 18.0487 22.7525 18.0487 21.6768C18.0487 20.6011 17.1767 19.7291 16.1011 19.7291Z" fill="#4588FD"/>
</svg>
