<svg width="20" height="19" viewBox="0 0 20 19" fill="none" xmlns="http://www.w3.org/2000/svg">
<path d="M10.5 16.5312C10.034 16.5312 9.65625 16.909 9.65625 17.375C9.65625 17.841 10.034 18.2188 10.5 18.2188H17.25C18.3373 18.2188 19.2188 17.3373 19.2188 16.25V2.75C19.2188 1.66269 18.3373 0.78125 17.25 0.78125H10.5C10.034 0.78125 9.65625 1.15901 9.65625 1.625C9.65625 2.09099 10.034 2.46875 10.5 2.46875L17.25 2.46875C17.4053 2.46875 17.5312 2.59467 17.5312 2.75L17.5312 16.25C17.5312 16.4053 17.4053 16.5312 17.25 16.5312H10.5Z" fill="#F45158"/>
<path fill-rule="evenodd" clip-rule="evenodd" d="M13.316 12.1609C14.0926 12.1609 14.7222 11.5313 14.7222 10.7546V8.23404C14.7222 7.45739 14.0926 6.82779 13.316 6.82779L8.12679 6.82779C8.11945 6.74519 8.11177 6.6626 8.10374 6.58004L8.04296 5.95468C7.95023 5.00055 6.93705 4.42915 6.07258 4.84345C4.23407 5.72454 2.56971 6.93026 1.15952 8.40261L1.04793 8.51913C0.525692 9.06438 0.525692 9.92426 1.04792 10.4695L1.15952 10.586C2.56971 12.0584 4.23407 13.2641 6.07258 14.1452C6.93705 14.5595 7.95023 13.9881 8.04296 13.034L8.10374 12.4086C8.11177 12.3261 8.11945 12.2435 8.12679 12.1609H13.316ZM7.3445 10.4734C7.04484 10.4734 6.77991 10.6301 6.63009 10.868C6.55713 10.9838 6.51147 11.1189 6.50238 11.2646C6.48197 11.5918 6.4559 11.9188 6.42416 12.2454L6.40652 12.4269C5.24096 11.8262 4.15856 11.0782 3.18567 10.2019C2.93327 9.97456 2.68825 9.73859 2.45105 9.49432C3.60253 8.30851 4.93858 7.31828 6.40652 6.56177L6.42416 6.74329C6.4559 7.06985 6.48197 7.39682 6.50238 7.72406C6.53012 8.1688 6.8989 8.51529 7.3445 8.51529H13.0347V10.4734H7.3445Z" fill="#F45158"/>
</svg>
