<svg width="27" height="27" viewBox="0 0 27 27" fill="none" xmlns="http://www.w3.org/2000/svg">
<path fill-rule="evenodd" clip-rule="evenodd" d="M8.15635 7.46028V6.14428C8.15635 5.16976 8.86932 4.34188 9.83306 4.19731L11.2055 3.99145C12.7267 3.76327 14.2735 3.76327 15.7947 3.99145L17.1671 4.19731C18.1309 4.34188 18.8439 5.16976 18.8439 6.14428V7.46028L20.7721 7.61593C22.2486 7.73511 23.4529 8.84677 23.6897 10.309C24.2131 13.5406 24.2131 16.8353 23.6897 20.0669C23.4529 21.5291 22.2486 22.6408 20.7721 22.7599L18.6662 22.9299C15.2277 23.2075 11.7725 23.2075 8.33396 22.9299L6.22805 22.7599C4.75162 22.6408 3.54726 21.5291 3.31047 20.0669C2.78713 16.8353 2.78713 13.5406 3.31047 10.309C3.54726 8.84677 4.75162 7.73511 6.22805 7.61593L8.15635 7.46028ZM11.4558 5.66028C12.8111 5.45699 14.1891 5.45699 15.5444 5.66028L16.9168 5.86614C17.0545 5.8868 17.1564 6.00506 17.1564 6.14428V7.34196C14.7208 7.20305 12.2794 7.20305 9.84385 7.34196V6.14428C9.84385 6.00506 9.9457 5.8868 10.0834 5.86614L11.4558 5.66028ZM8.46973 9.12797C11.8179 8.85772 15.1823 8.85772 18.5305 9.12797L20.6364 9.29796C21.3385 9.35464 21.9113 9.88333 22.0239 10.5787C22.0941 11.0118 22.1542 11.446 22.2045 11.8811C16.7172 14.5831 10.283 14.5831 4.79573 11.8811C4.84596 11.446 4.90614 11.0118 4.97627 10.5787C5.08888 9.88333 5.66166 9.35464 6.36382 9.29796L8.46973 9.12797ZM4.6451 13.6767C10.2694 16.2346 16.7308 16.2346 22.3551 13.6767C22.4623 15.7199 22.3519 17.7716 22.0239 19.7971C21.9113 20.4925 21.3385 21.0212 20.6364 21.0779L18.5305 21.2479C15.1823 21.5182 11.8179 21.5182 8.46973 21.2479L6.36382 21.0779C5.66166 21.0212 5.08888 20.4925 4.97627 19.7971C4.64825 17.7716 4.53786 15.7199 4.6451 13.6767Z" fill="#555555"/>
</svg>
