<svg width="24" height="30" viewBox="0 0 24 30" fill="none" xmlns="http://www.w3.org/2000/svg">
<path fill-rule="evenodd" clip-rule="evenodd" d="M13.4998 1.5C13.4998 0.671573 12.8282 0 11.9998 0C11.1714 0 10.4998 0.671573 10.4998 1.5V2.625H9.66366C6.32605 2.625 3.56366 5.22002 3.35531 8.55112L3.02381 13.8513C2.89742 15.8721 2.21898 17.8195 1.06239 19.4814C0.0173693 20.983 0.9477 23.0568 2.76409 23.2748L7.87479 23.8881V25.5C7.87479 27.7782 9.72161 29.625 11.9998 29.625C14.278 29.625 16.1248 27.7782 16.1248 25.5V23.8881L21.2355 23.2748C23.0519 23.0568 23.9822 20.9829 22.9372 19.4814C21.7806 17.8195 21.1021 15.8721 20.9757 13.8513L20.6442 8.55112C20.4359 5.22002 17.6735 2.625 14.3359 2.625H13.4998V1.5ZM9.66366 4.875C7.51416 4.875 5.7351 6.54626 5.60092 8.69157L5.26942 13.9918C5.11733 16.4235 4.30094 18.7668 2.90917 20.7666C2.83364 20.8752 2.90088 21.0251 3.03217 21.0408L8.63866 21.7136C10.8714 21.9815 13.1282 21.9815 15.3609 21.7136L20.9674 21.0408C21.0987 21.0251 21.1659 20.8752 21.0904 20.7666C19.6986 18.7668 18.8822 16.4235 18.7301 13.9918L18.3986 8.69157C18.2645 6.54626 16.4854 4.875 14.3359 4.875H9.66366ZM11.9998 27.375C10.9643 27.375 10.1248 26.5355 10.1248 25.5V24.375H13.8748V25.5C13.8748 26.5355 13.0353 27.375 11.9998 27.375Z" fill="#B7B9BE"/>
</svg>
