<svg width="25" height="25" viewBox="0 0 25 25" fill="none" xmlns="http://www.w3.org/2000/svg">
<path d="M8.84529 12.4996C8.84529 10.4803 10.4823 8.84335 12.5015 8.84335C14.5208 8.84335 16.1578 10.4803 16.1578 12.4996C16.1578 14.5189 14.5208 16.1558 12.5015 16.1558C10.4823 16.1558 8.84529 14.5189 8.84529 12.4996Z" fill="black"/>
<path fill-rule="evenodd" clip-rule="evenodd" d="M11.8948 1.06793C12.2265 0.724754 12.7766 0.724754 13.1082 1.06793L16.0021 4.0621H20.0953C20.5613 4.0621 20.939 4.43986 20.939 4.90585V8.99904L23.9332 11.8929C24.2764 12.2246 24.2764 12.7746 23.9332 13.1063L20.939 16.0002V20.0933C20.939 20.5593 20.5613 20.9371 20.0953 20.9371H16.0021L13.1082 23.9313C12.7766 24.2744 12.2265 24.2744 11.8948 23.9313L9.00099 20.9371H4.9078C4.44181 20.9371 4.06405 20.5593 4.06405 20.0933V16.0002L1.06988 13.1063C0.726708 12.7746 0.726707 12.2246 1.06988 11.8929L4.06405 8.99903V4.90585C4.06405 4.43986 4.44181 4.0621 4.9078 4.0621H9.00099L11.8948 1.06793ZM12.5015 7.15585C9.55027 7.15585 7.15779 9.54832 7.15779 12.4996C7.15779 15.4509 9.55027 17.8433 12.5015 17.8433C15.4528 17.8433 17.8453 15.4509 17.8453 12.4996C17.8453 9.54832 15.4528 7.15585 12.5015 7.15585Z" fill="black"/>
</svg>
