<svg width="25" height="25" viewBox="0 0 25 25" fill="none" xmlns="http://www.w3.org/2000/svg">
<path fill-rule="evenodd" clip-rule="evenodd" d="M12.4992 2.46427L10.0098 5.03996C9.74483 5.31411 9.3799 5.46892 8.99863 5.46892H5.46794V8.99961C5.46794 9.38088 5.31313 9.7458 5.03898 10.0108L2.46329 12.5002L5.03898 14.9896C5.31313 15.2545 5.46794 15.6195 5.46794 16.0007V19.5314H8.99863C9.3799 19.5314 9.74483 19.6862 10.0098 19.9604L12.4992 22.5361L14.9886 19.9604C15.2536 19.6862 15.6185 19.5314 15.9998 19.5314H19.5304V16.0007C19.5304 15.6195 19.6853 15.2545 19.9594 14.9896L22.5351 12.5002L19.9594 10.0108C19.6853 9.74581 19.5304 9.38088 19.5304 8.99961V5.46892H15.9998C15.6185 5.46892 15.2536 5.31411 14.9886 5.03996L12.4992 2.46427ZM11.488 1.08228C12.0408 0.510332 12.9576 0.510333 13.5104 1.08228L16.1191 3.78142H19.8117C20.5883 3.78142 21.2179 4.41102 21.2179 5.18767V8.8803L23.9171 11.489C24.489 12.0418 24.489 12.9585 23.9171 13.5113L21.2179 16.12V19.8127C21.2179 20.5893 20.5883 21.2189 19.8117 21.2189H16.1191L13.5104 23.9181C12.9576 24.49 12.0408 24.49 11.488 23.9181L8.87932 21.2189H5.18669C4.41004 21.2189 3.78044 20.5893 3.78044 19.8127V16.12L1.08131 13.5113C0.509357 12.9585 0.509356 12.0418 1.08131 11.489L3.78044 8.88029V5.18767C3.78044 4.41102 4.41004 3.78142 5.18669 3.78142H8.87932L11.488 1.08228Z" fill="#555555"/>
<path fill-rule="evenodd" clip-rule="evenodd" d="M7.15544 12.5002C7.15544 9.5489 9.54792 7.15642 12.4992 7.15642C15.4505 7.15642 17.8429 9.5489 17.8429 12.5002C17.8429 15.4514 15.4505 17.8439 12.4992 17.8439C9.54792 17.8439 7.15544 15.4514 7.15544 12.5002ZM12.4992 8.84392C10.4799 8.84392 8.84294 10.4809 8.84294 12.5002C8.84294 14.5195 10.4799 16.1564 12.4992 16.1564C14.5185 16.1564 16.1554 14.5195 16.1554 12.5002C16.1554 10.4809 14.5185 8.84392 12.4992 8.84392Z" fill="#555555"/>
</svg>
