<svg width="21" height="22" viewBox="0 0 21 22" fill="none" xmlns="http://www.w3.org/2000/svg">
<path fill-rule="evenodd" clip-rule="evenodd" d="M4.75892 2.59865V4.39726C4.32204 4.43034 3.88538 4.4672 3.44898 4.50785C1.7079 4.67 0.350068 6.28518 0.181668 8.02317C0.16236 8.22244 0.326359 8.38514 0.526563 8.38514H20.4704C20.6706 8.38514 20.8346 8.22244 20.8153 8.02317C20.6469 6.28518 19.2891 4.67 17.548 4.50785C17.1116 4.4672 16.675 4.43034 16.2381 4.39726V2.59866C16.2381 1.55194 15.4723 0.662736 14.4372 0.507466L12.9631 0.286357C11.3292 0.0412663 9.66783 0.0412666 8.03389 0.286357L6.55983 0.507466C5.5247 0.662736 4.75892 1.55194 4.75892 2.59865ZM12.6943 2.0788C11.2386 1.86045 9.75845 1.86045 8.30276 2.0788L6.8287 2.29991C6.68082 2.3221 6.57142 2.44912 6.57142 2.59865V4.28177C9.18773 4.14643 11.8093 4.14643 14.4256 4.28177V2.59866C14.4256 2.44913 14.3162 2.32209 14.1683 2.29991L12.6943 2.0788Z" fill="#F45158"/>
<path fill-rule="evenodd" clip-rule="evenodd" d="M20.8329 10.5601C20.8329 10.3599 20.6706 10.1976 20.4704 10.1976H0.526561C0.326357 10.1976 0.164062 10.3599 0.164062 10.5601V17.7198C0.164062 19.5894 1.58747 21.1516 3.44898 21.3249C8.13851 21.7617 12.8585 21.7617 17.548 21.3249C19.4095 21.1516 20.8329 19.5894 20.8329 17.7198V10.5601ZM7.47767 14.4268C6.97716 14.4268 6.57142 14.8325 6.57142 15.3331C6.57142 15.8336 6.97716 16.2393 7.47767 16.2393H9.59226V18.3539C9.59226 18.8544 9.998 19.2601 10.4985 19.2601C10.999 19.2601 11.4048 18.8544 11.4048 18.3539V16.2393H13.5193C14.0198 16.2393 14.4256 15.8336 14.4256 15.3331C14.4256 14.8325 14.0198 14.4268 13.5193 14.4268H11.4048V12.3122C11.4048 11.8117 10.999 11.406 10.4985 11.406C9.998 11.406 9.59226 11.8117 9.59226 12.3122V14.4268H7.47767Z" fill="#F45158"/>
</svg>
