<svg width="29" height="29" viewBox="0 0 29 29" fill="none" xmlns="http://www.w3.org/2000/svg">
<path d="M14.5013 1.51074C15.0018 1.51074 15.4076 1.91648 15.4076 2.41699V3.62533C15.4076 4.12583 15.0018 4.53158 14.5013 4.53158C14.0008 4.53158 13.5951 4.12583 13.5951 3.62533V2.41699C13.5951 1.91648 14.0008 1.51074 14.5013 1.51074Z" fill="#F18541"/>
<path d="M14.5013 7.55241C10.6641 7.55241 7.55339 10.6631 7.55339 14.5003C7.55339 18.3376 10.6641 21.4482 14.5013 21.4482C18.3385 21.4482 21.4492 18.3376 21.4492 14.5003C21.4492 10.6631 18.3385 7.55241 14.5013 7.55241Z" fill="#F18541"/>
<path d="M6.59793 5.31533C6.24402 4.96142 5.67021 4.96142 5.3163 5.31533C4.96238 5.66924 4.96238 6.24305 5.3163 6.59696L6.17072 7.45138C6.52463 7.8053 7.09844 7.8053 7.45235 7.45138C7.80626 7.09747 7.80626 6.52366 7.45235 6.16975L6.59793 5.31533Z" fill="#F18541"/>
<path d="M27.4909 14.5003C27.4909 15.0008 27.0851 15.4066 26.5846 15.4066H25.3763C24.8758 15.4066 24.4701 15.0008 24.4701 14.5003C24.4701 13.9998 24.8758 13.5941 25.3763 13.5941H26.5846C27.0851 13.5941 27.4909 13.9998 27.4909 14.5003Z" fill="#F18541"/>
<path d="M23.6863 6.59695C24.0402 6.24304 24.0402 5.66923 23.6863 5.31532C23.3324 4.96141 22.7586 4.96141 22.4047 5.31532L21.5502 6.16974C21.1963 6.52365 21.1963 7.09746 21.5502 7.45137C21.9042 7.80528 22.478 7.80528 22.8319 7.45137L23.6863 6.59695Z" fill="#F18541"/>
<path d="M14.5013 24.4691C15.0018 24.4691 15.4076 24.8748 15.4076 25.3753V26.5837C15.4076 27.0842 15.0018 27.4899 14.5013 27.4899C14.0008 27.4899 13.5951 27.0842 13.5951 26.5837V25.3753C13.5951 24.8748 14.0008 24.4691 14.5013 24.4691Z" fill="#F18541"/>
<path d="M22.832 21.5493C22.478 21.1954 21.9042 21.1954 21.5503 21.5493C21.1964 21.9032 21.1964 22.477 21.5503 22.8309L22.4047 23.6853C22.7587 24.0393 23.3325 24.0393 23.6864 23.6853C24.0403 23.3314 24.0403 22.7576 23.6864 22.4037L22.832 21.5493Z" fill="#F18541"/>
<path d="M4.53255 14.5003C4.53255 15.0008 4.12681 15.4066 3.6263 15.4066H2.41797C1.91746 15.4066 1.51172 15.0008 1.51172 14.5003C1.51172 13.9998 1.91746 13.5941 2.41797 13.5941H3.6263C4.12681 13.5941 4.53255 13.9998 4.53255 14.5003Z" fill="#F18541"/>
<path d="M7.45227 22.8309C7.80618 22.477 7.80618 21.9032 7.45227 21.5493C7.09836 21.1954 6.52455 21.1954 6.17064 21.5493L5.31622 22.4037C4.9623 22.7576 4.9623 23.3314 5.31622 23.6853C5.67013 24.0392 6.24393 24.0392 6.59785 23.6853L7.45227 22.8309Z" fill="#F18541"/>
</svg>
